<?xml version="1.0" encoding="UTF-8" standalone="no"?>
<svg width="679" height="223" viewBox="0 0 679 223" fill="none" xmlns="http://www.w3.org/2000/svg">
<rect width="679" height="223" fill="white"/>
<rect x="40" y="40" width="143" height="143" fill="#205EFC"/>
<g clip-path="url(#clip0_1010_36)">
<mask id="mask0_1010_36" style="mask-type:luminance" maskUnits="userSpaceOnUse" x="58" y="58" width="107" height="107">
<path d="M164.614 58.3857H58.3857V164.614H164.614V58.3857Z" fill="white"/>
</mask>
<g mask="url(#mask0_1010_36)">
<path d="M149.845 67.6173C147.831 67.6097 145.858 68.1912 144.17 69.29C142.481 70.3889 141.151 71.9574 140.342 73.8024C139.534 75.6474 139.282 77.6886 139.618 79.6749C139.954 81.6612 140.863 83.5059 142.233 84.9823L124.998 100.502C122.034 98.0407 118.307 96.6845 114.454 96.6645C110.602 96.6446 106.861 97.9619 103.872 100.392L90.0255 86.5259C90.8767 85.1453 91.3304 83.5567 91.3367 81.9348C91.3374 80.1697 90.8146 78.4441 89.8343 76.9761C88.8541 75.5082 87.4605 74.364 85.8298 73.6882C84.1992 73.0124 82.4047 72.8354 80.6735 73.1796C78.9423 73.5238 77.3521 74.3737 76.1039 75.6219C74.8558 76.87 74.0058 78.4603 73.6616 80.1915C73.3174 81.9228 73.4944 83.7172 74.1702 85.3478C74.846 86.9784 75.9902 88.372 77.4581 89.3523C78.926 90.3325 80.6518 90.8554 82.4169 90.8548C84.3674 90.8479 86.2607 90.1953 87.8013 88.999L101.478 102.699C98.8351 105.748 97.3724 109.643 97.3553 113.677C97.3553 114.059 97.4416 114.414 97.4681 114.789L78.9943 117.183C78.1087 115.293 76.5564 113.798 74.6355 112.983C72.7145 112.168 70.5603 112.091 68.5862 112.767C66.6121 113.443 64.9573 114.825 63.9395 116.646C62.9217 118.468 62.6126 120.601 63.0715 122.637C63.5304 124.673 64.725 126.467 66.426 127.676C68.127 128.884 70.2145 129.422 72.2878 129.186C74.361 128.95 76.274 127.956 77.6594 126.396C79.0448 124.835 79.8052 122.818 79.7943 120.732C79.7943 120.629 79.7678 120.536 79.7645 120.433L98.0025 118.069C98.664 120.53 99.8739 122.809 101.541 124.735L89.1491 138.014C87.7424 137.177 86.1382 136.73 84.5016 136.719C82.6544 136.718 80.8485 137.265 79.3123 138.291C77.7762 139.317 76.5787 140.775 75.8715 142.482C75.1643 144.188 74.9791 146.066 75.3394 147.878C75.6996 149.69 76.5891 151.354 77.8952 152.66C79.2014 153.966 80.8655 154.856 82.6773 155.216C84.489 155.576 86.3669 155.391 88.0734 154.684C89.7799 153.977 91.2382 152.779 92.2641 151.243C93.2899 149.707 93.837 147.901 93.8364 146.054C93.8271 143.903 93.0676 141.822 91.6887 140.171L103.971 127.039C106.532 129.105 109.652 130.359 112.93 130.64C116.209 130.922 119.496 130.218 122.372 128.619L132.238 138.359C130.569 140.215 129.658 142.63 129.686 145.126C129.713 147.622 130.676 150.017 132.386 151.836C134.095 153.656 136.425 154.767 138.914 154.949C141.404 155.132 143.871 154.374 145.828 152.824C147.784 151.274 149.088 149.046 149.479 146.58C149.871 144.115 149.323 141.593 147.943 139.513C146.563 137.432 144.453 135.946 142.029 135.348C139.606 134.75 137.046 135.084 134.857 136.284L125.18 126.73C126.922 125.326 128.363 123.587 129.42 121.616C130.477 119.645 131.128 117.482 131.334 115.255C131.54 113.028 131.298 110.782 130.62 108.651C129.943 106.519 128.845 104.545 127.391 102.845L144.922 87.0637C146.432 87.918 148.134 88.3749 149.869 88.3916C152.62 88.3916 155.259 87.2986 157.204 85.3532C159.15 83.4077 160.243 80.769 160.243 78.0177C160.243 75.2664 159.15 72.6277 157.204 70.6822C155.259 68.7367 152.62 67.6438 149.869 67.6438L149.845 67.6173ZM71.286 125.92C70.2598 125.92 69.2567 125.616 68.4034 125.046C67.5502 124.476 66.8852 123.665 66.4925 122.717C66.0998 121.769 65.997 120.726 66.1972 119.719C66.3974 118.713 66.8916 117.788 67.6172 117.063C68.3428 116.337 69.2674 115.843 70.2739 115.643C71.2804 115.442 72.3236 115.545 73.2717 115.938C74.2198 116.331 75.0301 116.996 75.6002 117.849C76.1704 118.702 76.4747 119.705 76.4747 120.732C76.4738 122.107 75.9268 123.427 74.954 124.399C73.9811 125.372 72.6619 125.919 71.286 125.92ZM145.905 144.799C145.906 146.072 145.529 147.316 144.822 148.374C144.116 149.433 143.111 150.258 141.936 150.745C140.76 151.233 139.467 151.36 138.218 151.113C136.97 150.865 135.824 150.252 134.924 149.353C134.023 148.453 133.41 147.307 133.162 146.059C132.913 144.811 133.041 143.517 133.528 142.341C134.014 141.165 134.839 140.16 135.897 139.453C136.955 138.746 138.199 138.369 139.472 138.369C141.177 138.371 142.812 139.048 144.018 140.254C145.224 141.459 145.902 143.094 145.905 144.799ZM82.4169 87.5351C81.3083 87.5358 80.2244 87.2076 79.3024 86.5921C78.3804 85.9767 77.6617 85.1015 77.2371 84.0775C76.8126 83.0534 76.7014 81.9265 76.9175 80.8392C77.1336 79.7519 77.6673 78.7531 78.4512 77.9693C79.2351 77.1854 80.2339 76.6516 81.3212 76.4355C82.4084 76.2194 83.5354 76.3307 84.5594 76.7552C85.5835 77.1797 86.4586 77.8984 87.0741 78.8204C87.6896 79.7425 88.0177 80.8263 88.0171 81.9348C88.0153 83.4196 87.4247 84.8431 86.3749 85.8929C85.325 86.9428 83.9016 87.5334 82.4169 87.5351ZM84.4917 152.062C83.3012 152.063 82.1372 151.711 81.147 151.05C80.1568 150.389 79.3849 149.449 78.9289 148.349C78.4728 147.25 78.3532 146.039 78.585 144.872C78.8169 143.704 79.3898 142.631 80.2314 141.789C81.073 140.947 82.1454 140.374 83.313 140.141C84.4805 139.909 85.6908 140.028 86.7907 140.483C87.8907 140.938 88.8308 141.71 89.4923 142.7C90.1538 143.69 90.5068 144.853 90.5068 146.044C90.505 147.639 89.8708 149.168 88.7432 150.296C87.6156 151.425 86.0868 152.06 84.4917 152.062ZM103.995 113.677C103.995 111.626 104.603 109.62 105.743 107.914C106.883 106.208 108.503 104.878 110.399 104.093C112.294 103.308 114.38 103.102 116.392 103.503C118.405 103.903 120.253 104.891 121.704 106.342C123.155 107.793 124.143 109.641 124.543 111.653C124.943 113.666 124.738 115.752 123.953 117.647C123.167 119.543 121.838 121.163 120.132 122.303C118.426 123.443 116.42 124.051 114.368 124.051C111.618 124.048 108.982 122.954 107.037 121.009C105.092 119.064 103.998 116.428 103.995 113.677ZM149.845 85.0454C148.45 85.0454 147.086 84.6317 145.926 83.8565C144.766 83.0814 143.862 81.9797 143.328 80.6907C142.794 79.4017 142.655 77.9833 142.927 76.6149C143.199 75.2465 143.871 73.9896 144.857 73.0031C145.844 72.0165 147.101 71.3446 148.469 71.0725C149.838 70.8003 151.256 70.9399 152.545 71.4738C153.834 72.0078 154.936 72.9119 155.711 74.072C156.486 75.232 156.9 76.5959 156.9 77.9911C156.898 79.8615 156.154 81.6547 154.832 82.9773C153.509 84.2998 151.716 85.0436 149.845 85.0454Z" fill="white"/>
</g>
</g>
<path d="M278.406 116C278.406 112.5 277.812 109.109 276.625 105.828C275.469 102.516 273.891 99.4062 271.891 96.5C269.922 93.5625 267.625 90.8281 265 88.2969C262.406 85.7656 259.672 83.5156 256.797 81.5469C253.922 79.5469 250.984 77.875 247.984 76.5312C245.016 75.1562 242.188 74.1406 239.5 73.4844V116H229.891V63.2188H235.094V63.3125C238.531 63.5 242.188 64.2656 246.062 65.6094C249.969 66.9219 253.844 68.7188 257.688 71C261.562 73.25 265.281 75.9375 268.844 79.0625C272.438 82.1562 275.625 85.5781 278.406 89.3281V63.2188H287.969V116H278.406ZM361.234 63.2188L334.281 116H323.312L296.172 63.2188H307.094L328.797 105.359L350.406 63.2188H361.234ZM427.75 116H418.141V101.516H381.156V91.7188H418.141V72.6875H393.156C390.812 72.6875 388.609 73.1406 386.547 74.0469C384.484 74.9219 382.688 76.125 381.156 77.6562C379.625 79.1875 378.406 80.9844 377.5 83.0469C376.625 85.0781 376.188 87.2656 376.188 89.6094V116H366.484V89.6094C366.484 85.9219 367.188 82.4688 368.594 79.25C370 76.0312 371.906 73.2188 374.312 70.8125C376.719 68.4062 379.547 66.5156 382.797 65.1406C386.047 63.7344 389.5 63.0312 393.156 63.0312H427.75V116ZM492.109 116H441.578V63.2188H451.188V106.391H492.109V116ZM509.781 116H500.266V63.2188H509.781V116ZM586.234 89.4219C586.234 93.1406 585.641 96.625 584.453 99.875C583.266 103.094 581.594 105.906 579.438 108.312C577.281 110.688 574.672 112.562 571.609 113.938C568.578 115.312 565.219 116 561.531 116H537.953V106.297H561.531C563.875 106.297 565.969 105.859 567.812 104.984C569.656 104.109 571.219 102.922 572.5 101.422C573.812 99.8906 574.812 98.1094 575.5 96.0781C576.188 94.0156 576.531 91.7969 576.531 89.4219C576.531 87.0781 576.188 84.8906 575.5 82.8594C574.812 80.8281 573.812 79.0625 572.5 77.5625C571.219 76.0625 569.656 74.875 567.812 74C565.969 73.125 563.875 72.6875 561.531 72.6875H533.406V116H523.609V63.0312H561.531C565.219 63.0312 568.578 63.7188 571.609 65.0938C574.672 66.4688 577.281 68.3438 579.438 70.7188C581.594 73.0938 583.266 75.8906 584.453 79.1094C585.641 82.2969 586.234 85.7344 586.234 89.4219Z" fill="#21242C"/>
<path d="M249.278 162C249.278 160.593 249.039 159.229 248.562 157.91C248.097 156.578 247.462 155.328 246.658 154.159C245.867 152.978 244.943 151.879 243.887 150.861C242.845 149.843 241.745 148.939 240.589 148.147C239.433 147.343 238.252 146.671 237.046 146.13C235.852 145.577 234.715 145.169 233.634 144.905V162H229.771V140.778H231.863V140.815C233.245 140.891 234.715 141.198 236.273 141.739C237.844 142.267 239.402 142.989 240.947 143.906C242.505 144.811 244.001 145.892 245.433 147.148C246.878 148.392 248.16 149.768 249.278 151.276V140.778H253.123V162H249.278ZM381.645 140.778L370.808 162H366.397L355.484 140.778H359.876L368.602 157.722L377.291 140.778H381.645ZM408.39 162H404.526V156.176H389.655V152.237H404.526V144.585H394.48C393.538 144.585 392.652 144.767 391.823 145.131C390.993 145.483 390.271 145.967 389.655 146.583C389.04 147.198 388.55 147.921 388.185 148.75C387.833 149.567 387.657 150.446 387.657 151.389V162H383.756V151.389C383.756 149.906 384.039 148.518 384.604 147.223C385.17 145.929 385.936 144.798 386.904 143.831C387.871 142.863 389.008 142.103 390.315 141.55C391.622 140.985 393.01 140.702 394.48 140.702H408.39V162ZM434.268 162H413.95V140.778H417.814V158.136H434.268V162ZM441.373 162H437.547V140.778H441.373V162ZM472.114 151.313C472.114 152.809 471.875 154.21 471.398 155.516C470.92 156.811 470.248 157.941 469.381 158.909C468.514 159.864 467.465 160.618 466.233 161.171C465.014 161.724 463.664 162 462.181 162H452.701V158.099H462.181C463.123 158.099 463.965 157.923 464.707 157.571C465.448 157.219 466.076 156.742 466.591 156.138C467.119 155.523 467.521 154.806 467.798 153.99C468.074 153.16 468.212 152.268 468.212 151.313C468.212 150.371 468.074 149.491 467.798 148.675C467.521 147.858 467.119 147.148 466.591 146.545C466.076 145.942 465.448 145.464 464.707 145.113C463.965 144.761 463.123 144.585 462.181 144.585H450.872V162H446.933V140.702H462.181C463.664 140.702 465.014 140.979 466.233 141.531C467.465 142.084 468.514 142.838 469.381 143.793C470.248 144.748 470.92 145.873 471.398 147.167C471.875 148.449 472.114 149.831 472.114 151.313Z" fill="#205EFC"/>
<path d="M283.713 151.351C283.713 152.821 283.48 154.203 283.015 155.498C282.55 156.779 281.884 157.904 281.017 158.871C280.163 159.839 279.133 160.605 277.926 161.171C276.733 161.724 275.401 162 273.931 162H267.221C265.751 162 264.413 161.724 263.206 161.171C262 160.605 260.963 159.839 260.096 158.871C259.242 157.904 258.582 156.779 258.117 155.498C257.653 154.203 257.42 152.821 257.42 151.351C257.42 149.894 257.653 148.524 258.117 147.242C258.582 145.961 259.242 144.842 260.096 143.887C260.963 142.92 262 142.16 263.206 141.607C264.413 141.054 265.751 140.778 267.221 140.778H273.931C275.401 140.778 276.733 141.054 277.926 141.607C279.133 142.16 280.163 142.92 281.017 143.887C281.884 144.842 282.55 145.961 283.015 147.242C283.48 148.524 283.713 149.894 283.713 151.351ZM279.849 151.351C279.849 150.421 279.711 149.548 279.434 148.731C279.17 147.902 278.781 147.186 278.266 146.583C277.763 145.967 277.147 145.483 276.419 145.131C275.69 144.767 274.86 144.585 273.931 144.585H267.221C266.291 144.585 265.456 144.767 264.714 145.131C263.985 145.483 263.363 145.967 262.848 146.583C262.346 147.186 261.956 147.902 261.68 148.731C261.416 149.548 261.284 150.421 261.284 151.351C261.284 152.281 261.416 153.16 261.68 153.99C261.956 154.806 262.346 155.523 262.848 156.138C263.363 156.754 263.985 157.244 264.714 157.608C265.456 157.96 266.291 158.136 267.221 158.136H273.931C274.86 158.136 275.69 157.96 276.419 157.608C277.147 157.244 277.763 156.754 278.266 156.138C278.781 155.523 279.17 154.806 279.434 153.99C279.711 153.16 279.849 152.281 279.849 151.351ZM313.153 151.313C313.153 152.809 312.914 154.21 312.436 155.516C311.959 156.811 311.287 157.941 310.42 158.909C309.553 159.864 308.504 160.618 307.272 161.171C306.053 161.724 304.703 162 303.22 162H293.74V158.099H303.22C304.162 158.099 305.004 157.923 305.746 157.571C306.487 157.219 307.115 156.742 307.63 156.138C308.158 155.523 308.56 154.806 308.837 153.99C309.113 153.16 309.251 152.268 309.251 151.313C309.251 150.371 309.113 149.491 308.837 148.675C308.56 147.858 308.158 147.148 307.63 146.545C307.115 145.942 306.487 145.464 305.746 145.113C305.004 144.761 304.162 144.585 303.22 144.585H291.911V162H287.972V140.702H303.22C304.703 140.702 306.053 140.979 307.272 141.531C308.504 142.084 309.553 142.838 310.42 143.793C311.287 144.748 311.959 145.873 312.436 147.167C312.914 148.449 313.153 149.831 313.153 151.313ZM339.615 162H317.45V140.702H339.615V144.585H321.351V158.099H339.615V162ZM337.146 153.198H323.18V149.297H337.146V153.198ZM500.706 162H496.842V156.176H481.971V152.237H496.842V144.585H486.796C485.854 144.585 484.968 144.767 484.139 145.131C483.309 145.483 482.587 145.967 481.971 146.583C481.355 147.198 480.865 147.921 480.501 148.75C480.149 149.567 479.973 150.446 479.973 151.389V162H476.072V151.389C476.072 149.906 476.354 148.518 476.92 147.223C477.485 145.929 478.252 144.798 479.219 143.831C480.187 142.863 481.324 142.103 482.631 141.55C483.938 140.985 485.326 140.702 486.796 140.702H500.706V162ZM518.008 162H514.144V144.585H503.929V140.778H528.204V144.585H518.008V162ZM556.25 151.351C556.25 152.821 556.017 154.203 555.552 155.498C555.087 156.779 554.421 157.904 553.554 158.871C552.7 159.839 551.67 160.605 550.463 161.171C549.27 161.724 547.938 162 546.468 162H539.758C538.288 162 536.95 161.724 535.743 161.171C534.537 160.605 533.501 159.839 532.634 158.871C531.779 157.904 531.119 156.779 530.655 155.498C530.19 154.203 529.957 152.821 529.957 151.351C529.957 149.894 530.19 148.524 530.655 147.242C531.119 145.961 531.779 144.842 532.634 143.887C533.501 142.92 534.537 142.16 535.743 141.607C536.95 141.054 538.288 140.778 539.758 140.778H546.468C547.938 140.778 549.27 141.054 550.463 141.607C551.67 142.16 552.7 142.92 553.554 143.887C554.421 144.842 555.087 145.961 555.552 147.242C556.017 148.524 556.25 149.894 556.25 151.351ZM552.386 151.351C552.386 150.421 552.248 149.548 551.971 148.731C551.707 147.902 551.318 147.186 550.803 146.583C550.3 145.967 549.684 145.483 548.956 145.131C548.227 144.767 547.398 144.585 546.468 144.585H539.758C538.828 144.585 537.993 144.767 537.251 145.131C536.522 145.483 535.901 145.967 535.385 146.583C534.883 147.186 534.493 147.902 534.217 148.731C533.953 149.548 533.821 150.421 533.821 151.351C533.821 152.281 533.953 153.16 534.217 153.99C534.493 154.806 534.883 155.523 535.385 156.138C535.901 156.754 536.522 157.244 537.251 157.608C537.993 157.96 538.828 158.136 539.758 158.136H546.468C547.398 158.136 548.227 157.96 548.956 157.608C549.684 157.244 550.3 156.754 550.803 156.138C551.318 155.523 551.707 154.806 551.971 153.99C552.248 153.16 552.386 152.281 552.386 151.351ZM585.501 162H580.243L574.211 156.251H566.39V152.425H577.076C577.617 152.425 578.126 152.319 578.603 152.105C579.08 151.891 579.495 151.609 579.847 151.257C580.199 150.892 580.475 150.472 580.676 149.994C580.877 149.517 580.978 149.014 580.978 148.486C580.978 147.946 580.877 147.443 580.676 146.978C580.475 146.501 580.199 146.086 579.847 145.734C579.495 145.383 579.08 145.106 578.603 144.905C578.126 144.692 577.617 144.585 577.076 144.585H564.373V162H560.509V140.778H577.076C578.144 140.778 579.15 140.985 580.092 141.4C581.034 141.802 581.851 142.354 582.542 143.058C583.246 143.749 583.799 144.566 584.201 145.508C584.603 146.438 584.804 147.431 584.804 148.486C584.804 149.353 584.666 150.189 584.389 150.993C584.113 151.785 583.723 152.513 583.221 153.179C582.731 153.833 582.146 154.398 581.468 154.876C580.789 155.353 580.048 155.705 579.244 155.931L585.501 162Z" fill="#21242C"/>
<defs>
<clipPath id="clip0_1010_36">
<rect width="106.229" height="106.229" fill="white" transform="translate(58.3857 58.3857)"/>
</clipPath>
</defs>
</svg>
