<?xml version="1.0" encoding="UTF-8" standalone="no"?>
<svg width="500" height="133" viewBox="0 0 500 133" fill="none" xmlns="http://www.w3.org/2000/svg">
<rect width="500" height="133" fill="white"/>
<rect width="133" height="133" fill="#58AC16"/>
<g clip-path="url(#clip0_1013_112)">
<mask id="mask0_1013_112" style="mask-type:luminance" maskUnits="userSpaceOnUse" x="17" y="17" width="99" height="99">
<path d="M115.788 17.2119H17.2119V115.788H115.788V17.2119Z" fill="white"/>
</mask>
<g mask="url(#mask0_1013_112)">
<path d="M102.083 25.7784C100.213 25.7714 98.3827 26.3109 96.8159 27.3307C95.2491 28.3504 94.0146 29.8058 93.2641 31.518C92.5136 33.2301 92.2799 35.1242 92.5917 36.9674C92.9035 38.8106 93.7472 40.5225 95.0191 41.8925L79.0251 56.294C76.2743 54.0103 72.8163 52.7518 69.2411 52.7333C65.6659 52.7147 62.195 53.9372 59.4207 56.1923L46.5719 43.3249C47.3617 42.0438 47.7828 40.5696 47.7886 39.0646C47.7893 37.4266 47.3041 35.8253 46.3945 34.4631C45.4849 33.1009 44.1916 32.0391 42.6785 31.412C41.1653 30.7849 39.5001 30.6207 37.8935 30.9401C36.287 31.2595 34.8114 32.0482 33.6531 33.2064C32.4949 34.3646 31.7062 35.8404 31.3868 37.4469C31.0673 39.0534 31.2316 40.7185 31.8587 42.2317C32.4858 43.7449 33.5476 45.0381 34.9098 45.9477C36.272 46.8574 37.8734 47.3426 39.5114 47.342C41.3214 47.3356 43.0783 46.73 44.5079 45.6199L57.1996 58.3332C54.7469 61.1621 53.3895 64.7765 53.3737 68.5205C53.3737 68.8748 53.4538 69.2044 53.4784 69.5525L36.3353 71.7736C35.5135 70.0202 34.0731 68.6322 32.2905 67.8759C30.5079 67.1196 28.5088 67.0484 26.677 67.6759C24.8451 68.3034 23.3095 69.5854 22.365 71.2758C21.4205 72.9662 21.1337 74.9459 21.5595 76.8349C21.9854 78.7238 23.0939 80.389 24.6724 81.5106C26.2508 82.6323 28.188 83.1313 30.1119 82.9121C32.0358 82.6929 33.8109 81.7708 35.0966 80.3228C36.3822 78.8748 37.0878 77.003 37.0777 75.0666C37.0777 74.9711 37.0531 74.8849 37.05 74.7894L53.9743 72.596C54.5882 74.8793 55.7108 76.994 57.2582 78.7817L45.7586 91.1038C44.4532 90.3274 42.9647 89.9127 41.4459 89.9023C39.7318 89.9017 38.0559 90.4095 36.6304 91.3614C35.2049 92.3134 34.0937 93.6667 33.4375 95.2503C32.7812 96.8338 32.6094 98.5765 32.9436 100.258C33.2779 101.939 34.1033 103.483 35.3154 104.695C36.5275 105.907 38.0717 106.733 39.753 107.067C41.4342 107.401 43.1769 107.229 44.7604 106.573C46.3439 105.917 47.6973 104.806 48.6492 103.38C49.6012 101.955 50.1089 100.279 50.1082 98.5648C50.0996 96.5687 49.3948 94.6381 48.1152 93.1061L59.5131 80.9196C61.8897 82.8365 64.7846 84.0001 67.8268 84.2614C70.8689 84.5226 73.9197 83.8696 76.5884 82.3859L85.7437 91.4242C84.195 93.1467 83.3497 95.3879 83.375 97.7041C83.4004 100.02 84.2946 102.243 85.8806 103.931C87.4666 105.619 89.6288 106.65 91.939 106.82C94.2491 106.989 96.5387 106.285 98.3544 104.847C100.17 103.409 101.379 101.341 101.743 99.0534C102.107 96.7658 101.598 94.4251 100.317 92.4947C99.0371 90.5644 97.0786 89.1853 94.8297 88.6305C92.5808 88.0756 90.2055 88.3855 88.1742 89.4988L79.1945 80.6331C80.8101 79.3303 82.148 77.7166 83.1288 75.8875C84.1097 74.0585 84.7137 72.0512 84.905 69.9845C85.0963 67.9179 84.871 65.834 84.2426 63.856C83.6141 61.8779 82.5951 60.046 81.2461 58.4688L97.5143 43.824C98.9153 44.6168 100.495 45.0407 102.104 45.0562C104.657 45.0562 107.106 44.042 108.911 42.2367C110.717 40.4314 111.731 37.9828 111.731 35.4296C111.731 32.8765 110.717 30.4279 108.911 28.6226C107.106 26.8172 104.657 25.803 102.104 25.803L102.083 25.7784ZM29.1823 79.8814C28.23 79.8814 27.2992 79.5991 26.5074 79.07C25.7156 78.541 25.0985 77.7889 24.7341 76.9091C24.3696 76.0293 24.2742 75.0613 24.46 74.1273C24.6458 73.1933 25.1044 72.3353 25.7777 71.662C26.4511 70.9886 27.3091 70.5301 28.2431 70.3443C29.1771 70.1585 30.1451 70.2538 31.0249 70.6183C31.9047 70.9827 32.6567 71.5999 33.1857 72.3917C33.7148 73.1835 33.9972 74.1143 33.9972 75.0666C33.9964 76.3433 33.4888 77.5676 32.586 78.4703C31.6833 79.3731 30.459 79.8806 29.1823 79.8814ZM98.4262 97.4004C98.4268 98.5812 98.0771 99.7358 97.4215 100.718C96.7659 101.7 95.8337 102.466 94.7429 102.918C93.6521 103.371 92.4516 103.489 91.2933 103.259C90.135 103.029 89.071 102.461 88.2357 101.626C87.4005 100.791 86.8316 99.7274 86.601 98.5693C86.3704 97.4111 86.4885 96.2106 86.9403 95.1195C87.392 94.0284 88.1572 93.0959 89.1391 92.4397C90.1209 91.7836 91.2752 91.4334 92.4561 91.4334C94.0384 91.435 95.5556 92.0641 96.6747 93.1827C97.7939 94.3013 98.4238 95.818 98.4262 97.4004ZM39.5114 44.2615C38.4827 44.2621 37.4768 43.9576 36.6212 43.3864C35.7656 42.8153 35.0987 42.0032 34.7047 41.0529C34.3108 40.1026 34.2076 39.0569 34.4081 38.0479C34.6087 37.0389 35.1039 36.1121 35.8313 35.3847C36.5588 34.6573 37.4856 34.1619 38.4946 33.9614C39.5035 33.7608 40.5493 33.8641 41.4996 34.2581C42.4499 34.652 43.262 35.319 43.8331 36.1746C44.4042 37.0302 44.7087 38.0359 44.7081 39.0646C44.7065 40.4424 44.1585 41.7633 43.1842 42.7376C42.21 43.7118 40.8891 44.2598 39.5114 44.2615ZM41.4367 104.14C40.332 104.141 39.2518 103.814 38.333 103.201C37.4141 102.587 36.6978 101.715 36.2746 100.695C35.8514 99.6745 35.7404 98.5514 35.9555 97.4679C36.1707 96.3843 36.7023 95.3888 37.4833 94.6074C38.2642 93.826 39.2594 93.2938 40.3429 93.0781C41.4263 92.8623 42.5494 92.9727 43.5701 93.3953C44.5908 93.818 45.4633 94.5339 46.0771 95.4524C46.6909 96.3709 47.0185 97.4508 47.0185 98.5555C47.0169 100.036 46.4284 101.455 45.382 102.502C44.3356 103.549 42.9169 104.138 41.4367 104.14ZM59.5347 68.5205C59.5347 66.6166 60.0993 64.7553 61.157 63.1722C62.2148 61.5891 63.7183 60.3553 65.4774 59.6267C67.2364 58.8981 69.172 58.7074 71.0394 59.0788C72.9067 59.4503 74.622 60.3672 75.9683 61.7135C77.3146 63.0598 78.2315 64.7751 78.6029 66.6425C78.9744 68.5099 78.7837 70.4455 78.0551 72.2045C77.3265 73.9635 76.0926 75.4669 74.5095 76.5247C72.9265 77.5825 71.0653 78.1471 69.1613 78.1471C66.6092 78.1439 64.1625 77.1286 62.3578 75.3239C60.5532 73.5193 59.538 71.0727 59.5347 68.5205ZM102.083 41.9511C100.788 41.9511 99.5224 41.5672 98.4459 40.8479C97.3694 40.1286 96.5304 39.1062 96.035 37.9101C95.5395 36.7139 95.4098 35.3977 95.6624 34.1279C95.915 32.8581 96.5385 31.6917 97.454 30.7762C98.3694 29.8607 99.5359 29.2373 100.806 28.9847C102.076 28.7321 103.392 28.8617 104.588 29.3572C105.784 29.8526 106.806 30.6916 107.526 31.7681C108.245 32.8446 108.629 34.1103 108.629 35.405C108.627 37.1406 107.937 38.8047 106.71 40.032C105.482 41.2592 103.818 41.9495 102.083 41.9511Z" fill="white"/>
</g>
</g>
<path d="M195.938 65C195.938 62.6667 195.542 60.4062 194.75 58.2188C193.979 56.0104 192.927 53.9375 191.594 52C190.281 50.0417 188.75 48.2188 187 46.5312C185.271 44.8438 183.448 43.3438 181.531 42.0312C179.615 40.6979 177.656 39.5833 175.656 38.6875C173.677 37.7708 171.792 37.0938 170 36.6562V65H163.594V29.8125H167.062V29.875C169.354 30 171.792 30.5104 174.375 31.4062C176.979 32.2812 179.562 33.4792 182.125 35C184.708 36.5 187.188 38.2917 189.562 40.375C191.958 42.4375 194.083 44.7188 195.938 47.2188V29.8125H202.312V65H195.938ZM251.156 29.8125L233.188 65H225.875L207.781 29.8125H215.062L229.531 57.9062L243.938 29.8125H251.156ZM295.5 65H289.094V55.3438H264.438V48.8125H289.094V36.125H272.438C270.875 36.125 269.406 36.4271 268.031 37.0312C266.656 37.6146 265.458 38.4167 264.438 39.4375C263.417 40.4583 262.604 41.6562 262 43.0312C261.417 44.3854 261.125 45.8438 261.125 47.4062V65H254.656V47.4062C254.656 44.9479 255.125 42.6458 256.062 40.5C257 38.3542 258.271 36.4792 259.875 34.875C261.479 33.2708 263.365 32.0104 265.531 31.0938C267.698 30.1562 270 29.6875 272.438 29.6875H295.5V65ZM338.406 65H304.719V29.8125H311.125V58.5938H338.406V65ZM350.188 65H343.844V29.8125H350.188V65ZM401.156 47.2812C401.156 49.7604 400.76 52.0833 399.969 54.25C399.177 56.3958 398.062 58.2708 396.625 59.875C395.188 61.4583 393.448 62.7083 391.406 63.625C389.385 64.5417 387.146 65 384.688 65H368.969V58.5312H384.688C386.25 58.5312 387.646 58.2396 388.875 57.6562C390.104 57.0729 391.146 56.2812 392 55.2812C392.875 54.2604 393.542 53.0729 394 51.7188C394.458 50.3438 394.688 48.8646 394.688 47.2812C394.688 45.7188 394.458 44.2604 394 42.9062C393.542 41.5521 392.875 40.375 392 39.375C391.146 38.375 390.104 37.5833 388.875 37C387.646 36.4167 386.25 36.125 384.688 36.125H365.938V65H359.406V29.6875H384.688C387.146 29.6875 389.385 30.1458 391.406 31.0625C393.448 31.9792 395.188 33.2292 396.625 34.8125C398.062 36.3958 399.177 38.2604 399.969 40.4062C400.76 42.5312 401.156 44.8229 401.156 47.2812Z" fill="#21242C"/>
<path d="M176.429 104C176.429 103.089 176.274 102.206 175.965 101.351C175.664 100.488 175.253 99.6787 174.732 98.9219C174.219 98.1569 173.621 97.4448 172.938 96.7856C172.262 96.1265 171.55 95.5405 170.801 95.0278C170.053 94.507 169.288 94.0716 168.506 93.7217C167.733 93.3636 166.997 93.0991 166.297 92.9282V104H163.794V90.2549H165.149V90.2793C166.045 90.3281 166.997 90.5275 168.006 90.8774C169.023 91.2192 170.032 91.6872 171.033 92.2812C172.042 92.8672 173.011 93.5671 173.938 94.3809C174.874 95.1865 175.704 96.0776 176.429 97.0542V90.2549H178.919V104H176.429ZM262.574 90.2549L255.555 104H252.698L245.63 90.2549H248.475L254.126 101.229L259.754 90.2549H262.574ZM279.896 104H277.393V100.228H267.762V97.6768H277.393V92.7207H270.887C270.276 92.7207 269.703 92.8387 269.166 93.0747C268.628 93.3026 268.16 93.6159 267.762 94.0146C267.363 94.4134 267.046 94.8813 266.81 95.4185C266.582 95.9474 266.468 96.5171 266.468 97.1274V104H263.941V97.1274C263.941 96.1672 264.124 95.2679 264.49 94.4297C264.856 93.5915 265.353 92.859 265.979 92.2324C266.606 91.6058 267.343 91.1134 268.189 90.7554C269.035 90.3892 269.935 90.2061 270.887 90.2061H279.896V104ZM296.656 104H283.497V90.2549H285.999V101.498H296.656V104ZM301.258 104H298.78V90.2549H301.258V104ZM321.167 97.0786C321.167 98.047 321.013 98.9544 320.704 99.8008C320.394 100.639 319.959 101.371 319.397 101.998C318.836 102.617 318.156 103.105 317.359 103.463C316.569 103.821 315.695 104 314.734 104H308.594V101.473H314.734C315.345 101.473 315.89 101.359 316.37 101.131C316.85 100.903 317.257 100.594 317.591 100.204C317.933 99.8049 318.193 99.341 318.372 98.812C318.551 98.2749 318.641 97.6971 318.641 97.0786C318.641 96.4683 318.551 95.8986 318.372 95.3696C318.193 94.8407 317.933 94.3809 317.591 93.9902C317.257 93.5996 316.85 93.2904 316.37 93.0625C315.89 92.8346 315.345 92.7207 314.734 92.7207H307.41V104H304.859V90.2061H314.734C315.695 90.2061 316.569 90.3851 317.359 90.7432C318.156 91.1012 318.836 91.5895 319.397 92.208C319.959 92.8265 320.394 93.5549 320.704 94.3931C321.013 95.2231 321.167 96.1183 321.167 97.0786Z" fill="#58AC16"/>
<path d="M198.731 97.103C198.731 98.0552 198.58 98.9504 198.279 99.7886C197.978 100.619 197.547 101.347 196.985 101.974C196.432 102.6 195.765 103.097 194.983 103.463C194.21 103.821 193.348 104 192.396 104H188.05C187.098 104 186.231 103.821 185.45 103.463C184.668 103.097 183.997 102.6 183.436 101.974C182.882 101.347 182.455 100.619 182.154 99.7886C181.853 98.9504 181.702 98.0552 181.702 97.103C181.702 96.159 181.853 95.272 182.154 94.4419C182.455 93.6118 182.882 92.8875 183.436 92.269C183.997 91.6424 184.668 91.1501 185.45 90.792C186.231 90.4339 187.098 90.2549 188.05 90.2549H192.396C193.348 90.2549 194.21 90.4339 194.983 90.792C195.765 91.1501 196.432 91.6424 196.985 92.269C197.547 92.8875 197.978 93.6118 198.279 94.4419C198.58 95.272 198.731 96.159 198.731 97.103ZM196.229 97.103C196.229 96.5008 196.139 95.9352 195.96 95.4062C195.789 94.8691 195.537 94.4053 195.203 94.0146C194.878 93.6159 194.479 93.3026 194.007 93.0747C193.535 92.8387 192.998 92.7207 192.396 92.7207H188.05C187.448 92.7207 186.906 92.8387 186.426 93.0747C185.954 93.3026 185.551 93.6159 185.218 94.0146C184.892 94.4053 184.64 94.8691 184.461 95.4062C184.29 95.9352 184.205 96.5008 184.205 97.103C184.205 97.7052 184.29 98.2749 184.461 98.812C184.64 99.341 184.892 99.8049 185.218 100.204C185.551 100.602 185.954 100.92 186.426 101.156C186.906 101.384 187.448 101.498 188.05 101.498H192.396C192.998 101.498 193.535 101.384 194.007 101.156C194.479 100.92 194.878 100.602 195.203 100.204C195.537 99.8049 195.789 99.341 195.96 98.812C196.139 98.2749 196.229 97.7052 196.229 97.103ZM217.798 97.0786C217.798 98.047 217.644 98.9544 217.334 99.8008C217.025 100.639 216.59 101.371 216.028 101.998C215.467 102.617 214.787 103.105 213.99 103.463C213.2 103.821 212.326 104 211.365 104H205.225V101.473H211.365C211.976 101.473 212.521 101.359 213.001 101.131C213.481 100.903 213.888 100.594 214.222 100.204C214.563 99.8049 214.824 99.341 215.003 98.812C215.182 98.2749 215.271 97.6971 215.271 97.0786C215.271 96.4683 215.182 95.8986 215.003 95.3696C214.824 94.8407 214.563 94.3809 214.222 93.9902C213.888 93.5996 213.481 93.2904 213.001 93.0625C212.521 92.8346 211.976 92.7207 211.365 92.7207H204.041V104H201.49V90.2061H211.365C212.326 90.2061 213.2 90.3851 213.99 90.7432C214.787 91.1012 215.467 91.5895 216.028 92.208C216.59 92.8265 217.025 93.5549 217.334 94.3931C217.644 95.2231 217.798 96.1183 217.798 97.0786ZM234.937 104H220.582V90.2061H234.937V92.7207H223.108V101.473H234.937V104ZM233.338 98.2993H224.292V95.7725H233.338V98.2993ZM339.686 104H337.183V100.228H327.552V97.6768H337.183V92.7207H330.677C330.066 92.7207 329.493 92.8387 328.956 93.0747C328.418 93.3026 327.951 93.6159 327.552 94.0146C327.153 94.4134 326.836 94.8813 326.6 95.4185C326.372 95.9474 326.258 96.5171 326.258 97.1274V104H323.731V97.1274C323.731 96.1672 323.914 95.2679 324.28 94.4297C324.646 93.5915 325.143 92.859 325.77 92.2324C326.396 91.6058 327.133 91.1134 327.979 90.7554C328.825 90.3892 329.725 90.2061 330.677 90.2061H339.686V104ZM350.892 104H348.389V92.7207H341.773V90.2549H357.496V92.7207H350.892V104ZM362.049 104H359.571V90.2549H362.049V104ZM381.861 97.103C381.861 98.0552 381.71 98.9504 381.409 99.7886C381.108 100.619 380.677 101.347 380.115 101.974C379.562 102.6 378.895 103.097 378.113 103.463C377.34 103.821 376.478 104 375.525 104H371.18C370.228 104 369.361 103.821 368.58 103.463C367.798 103.097 367.127 102.6 366.565 101.974C366.012 101.347 365.585 100.619 365.284 99.7886C364.983 98.9504 364.832 98.0552 364.832 97.103C364.832 96.159 364.983 95.272 365.284 94.4419C365.585 93.6118 366.012 92.8875 366.565 92.269C367.127 91.6424 367.798 91.1501 368.58 90.792C369.361 90.4339 370.228 90.2549 371.18 90.2549H375.525C376.478 90.2549 377.34 90.4339 378.113 90.792C378.895 91.1501 379.562 91.6424 380.115 92.269C380.677 92.8875 381.108 93.6118 381.409 94.4419C381.71 95.272 381.861 96.159 381.861 97.103ZM379.358 97.103C379.358 96.5008 379.269 95.9352 379.09 95.4062C378.919 94.8691 378.667 94.4053 378.333 94.0146C378.007 93.6159 377.609 93.3026 377.137 93.0747C376.665 92.8387 376.128 92.7207 375.525 92.7207H371.18C370.577 92.7207 370.036 92.8387 369.556 93.0747C369.084 93.3026 368.681 93.6159 368.348 94.0146C368.022 94.4053 367.77 94.8691 367.591 95.4062C367.42 95.9352 367.334 96.5008 367.334 97.103C367.334 97.7052 367.42 98.2749 367.591 98.812C367.77 99.341 368.022 99.8049 368.348 100.204C368.681 100.602 369.084 100.92 369.556 101.156C370.036 101.384 370.577 101.498 371.18 101.498H375.525C376.128 101.498 376.665 101.384 377.137 101.156C377.609 100.92 378.007 100.602 378.333 100.204C378.667 99.8049 378.919 99.341 379.09 98.812C379.269 98.2749 379.358 97.7052 379.358 97.103ZM397.254 104C397.254 103.089 397.099 102.206 396.79 101.351C396.489 100.488 396.078 99.6787 395.557 98.9219C395.044 98.1569 394.446 97.4448 393.763 96.7856C393.087 96.1265 392.375 95.5405 391.626 95.0278C390.878 94.507 390.113 94.0716 389.332 93.7217C388.558 93.3636 387.822 93.0991 387.122 92.9282V104H384.62V90.2549H385.975V90.2793C386.87 90.3281 387.822 90.5275 388.831 90.8774C389.848 91.2192 390.857 91.6872 391.858 92.2812C392.868 92.8672 393.836 93.5671 394.764 94.3809C395.7 95.1865 396.53 96.0776 397.254 97.0542V90.2549H399.744V104H397.254Z" fill="#21242C"/>
<defs>
<clipPath id="clip0_1013_112">
<rect width="98.5765" height="98.5765" fill="white" transform="translate(17.2119 17.2119)"/>
</clipPath>
</defs>
</svg>
