<?xml version="1.0" encoding="UTF-8" standalone="no"?>
<svg width="500" height="133" viewBox="0 0 500 133" fill="none" xmlns="http://www.w3.org/2000/svg">
<rect width="500" height="133" fill="white"/>
<rect width="133" height="133" fill="#58AC16"/>
<g clip-path="url(#clip0_1011_107)">
<mask id="mask0_1011_107" style="mask-type:luminance" maskUnits="userSpaceOnUse" x="17" y="17" width="99" height="99">
<path d="M115.788 17.2119H17.2119V115.788H115.788V17.2119Z" fill="white"/>
</mask>
<g mask="url(#mask0_1011_107)">
<path d="M102.083 25.7784C100.213 25.7714 98.3827 26.3109 96.8159 27.3307C95.2491 28.3504 94.0146 29.8058 93.2641 31.518C92.5136 33.2301 92.2799 35.1242 92.5917 36.9674C92.9035 38.8106 93.7472 40.5225 95.0191 41.8925L79.0251 56.294C76.2743 54.0103 72.8163 52.7518 69.2411 52.7333C65.6659 52.7147 62.195 53.9372 59.4207 56.1923L46.5719 43.3249C47.3617 42.0438 47.7828 40.5696 47.7886 39.0646C47.7893 37.4266 47.3041 35.8253 46.3945 34.4631C45.4849 33.1009 44.1916 32.0391 42.6785 31.412C41.1653 30.7849 39.5001 30.6207 37.8935 30.9401C36.287 31.2595 34.8114 32.0482 33.6531 33.2064C32.4949 34.3646 31.7062 35.8404 31.3868 37.4469C31.0673 39.0534 31.2316 40.7185 31.8587 42.2317C32.4858 43.7449 33.5476 45.0381 34.9098 45.9477C36.272 46.8574 37.8734 47.3426 39.5114 47.342C41.3214 47.3356 43.0783 46.73 44.5079 45.6199L57.1996 58.3332C54.7469 61.1621 53.3895 64.7765 53.3737 68.5205C53.3737 68.8748 53.4538 69.2044 53.4784 69.5525L36.3353 71.7736C35.5135 70.0202 34.0731 68.6322 32.2905 67.8759C30.5079 67.1196 28.5088 67.0484 26.677 67.6759C24.8451 68.3034 23.3095 69.5854 22.365 71.2758C21.4205 72.9662 21.1337 74.9459 21.5595 76.8349C21.9854 78.7238 23.0939 80.389 24.6724 81.5106C26.2508 82.6323 28.188 83.1313 30.1119 82.9121C32.0358 82.6929 33.8109 81.7708 35.0966 80.3228C36.3822 78.8748 37.0878 77.003 37.0777 75.0666C37.0777 74.9711 37.0531 74.8849 37.05 74.7894L53.9743 72.596C54.5882 74.8793 55.7108 76.994 57.2582 78.7817L45.7586 91.1038C44.4532 90.3274 42.9647 89.9127 41.4459 89.9023C39.7318 89.9017 38.0559 90.4095 36.6304 91.3614C35.2049 92.3134 34.0937 93.6667 33.4375 95.2503C32.7812 96.8338 32.6094 98.5765 32.9436 100.258C33.2779 101.939 34.1033 103.483 35.3154 104.695C36.5275 105.907 38.0717 106.733 39.753 107.067C41.4342 107.401 43.1769 107.229 44.7604 106.573C46.3439 105.917 47.6973 104.806 48.6492 103.38C49.6012 101.955 50.1089 100.279 50.1082 98.5648C50.0996 96.5687 49.3948 94.6381 48.1152 93.1061L59.5131 80.9196C61.8897 82.8365 64.7846 84.0001 67.8268 84.2614C70.8689 84.5226 73.9197 83.8696 76.5884 82.3859L85.7437 91.4242C84.195 93.1467 83.3497 95.3879 83.375 97.7041C83.4004 100.02 84.2946 102.243 85.8806 103.931C87.4666 105.619 89.6288 106.65 91.939 106.82C94.2491 106.989 96.5387 106.285 98.3544 104.847C100.17 103.409 101.379 101.341 101.743 99.0534C102.107 96.7658 101.598 94.4251 100.317 92.4947C99.0371 90.5644 97.0786 89.1853 94.8297 88.6305C92.5808 88.0756 90.2055 88.3855 88.1742 89.4988L79.1945 80.6331C80.8101 79.3303 82.148 77.7166 83.1288 75.8875C84.1097 74.0585 84.7137 72.0512 84.905 69.9845C85.0963 67.9179 84.871 65.834 84.2426 63.856C83.6141 61.8779 82.5951 60.046 81.2461 58.4688L97.5143 43.824C98.9153 44.6168 100.495 45.0407 102.104 45.0562C104.657 45.0562 107.106 44.042 108.911 42.2367C110.717 40.4314 111.731 37.9828 111.731 35.4296C111.731 32.8765 110.717 30.4279 108.911 28.6226C107.106 26.8172 104.657 25.803 102.104 25.803L102.083 25.7784ZM29.1823 79.8814C28.23 79.8814 27.2992 79.5991 26.5074 79.07C25.7156 78.541 25.0985 77.7889 24.7341 76.9091C24.3696 76.0293 24.2742 75.0613 24.46 74.1273C24.6458 73.1933 25.1044 72.3353 25.7777 71.662C26.4511 70.9886 27.3091 70.5301 28.2431 70.3443C29.1771 70.1585 30.1451 70.2538 31.0249 70.6183C31.9047 70.9827 32.6567 71.5999 33.1857 72.3917C33.7148 73.1835 33.9972 74.1143 33.9972 75.0666C33.9964 76.3433 33.4888 77.5676 32.586 78.4703C31.6833 79.3731 30.459 79.8806 29.1823 79.8814ZM98.4262 97.4004C98.4268 98.5812 98.0771 99.7358 97.4215 100.718C96.7659 101.7 95.8337 102.466 94.7429 102.918C93.6521 103.371 92.4516 103.489 91.2933 103.259C90.135 103.029 89.071 102.461 88.2357 101.626C87.4005 100.791 86.8316 99.7274 86.601 98.5693C86.3704 97.4111 86.4885 96.2106 86.9403 95.1195C87.392 94.0284 88.1572 93.0959 89.1391 92.4397C90.1209 91.7836 91.2752 91.4334 92.4561 91.4334C94.0384 91.435 95.5556 92.0641 96.6747 93.1827C97.7939 94.3013 98.4238 95.818 98.4262 97.4004ZM39.5114 44.2615C38.4827 44.2621 37.4768 43.9576 36.6212 43.3864C35.7656 42.8153 35.0987 42.0032 34.7047 41.0529C34.3108 40.1026 34.2076 39.0569 34.4081 38.0479C34.6087 37.0389 35.1039 36.1121 35.8313 35.3847C36.5588 34.6573 37.4856 34.1619 38.4946 33.9614C39.5035 33.7608 40.5493 33.8641 41.4996 34.2581C42.4499 34.652 43.262 35.319 43.8331 36.1746C44.4042 37.0302 44.7087 38.0359 44.7081 39.0646C44.7065 40.4424 44.1585 41.7633 43.1842 42.7376C42.21 43.7118 40.8891 44.2598 39.5114 44.2615ZM41.4367 104.14C40.332 104.141 39.2518 103.814 38.333 103.201C37.4141 102.587 36.6978 101.715 36.2746 100.695C35.8514 99.6745 35.7404 98.5514 35.9555 97.4679C36.1707 96.3843 36.7023 95.3888 37.4833 94.6074C38.2642 93.826 39.2594 93.2938 40.3429 93.0781C41.4263 92.8623 42.5494 92.9727 43.5701 93.3953C44.5908 93.818 45.4633 94.5339 46.0771 95.4524C46.6909 96.3709 47.0185 97.4508 47.0185 98.5555C47.0169 100.036 46.4284 101.455 45.382 102.502C44.3356 103.549 42.9169 104.138 41.4367 104.14ZM59.5347 68.5205C59.5347 66.6166 60.0993 64.7553 61.157 63.1722C62.2148 61.5891 63.7183 60.3553 65.4774 59.6267C67.2364 58.8981 69.172 58.7074 71.0394 59.0788C72.9067 59.4503 74.622 60.3672 75.9683 61.7135C77.3146 63.0598 78.2315 64.7751 78.6029 66.6425C78.9744 68.5099 78.7837 70.4455 78.0551 72.2045C77.3265 73.9635 76.0926 75.4669 74.5095 76.5247C72.9265 77.5825 71.0653 78.1471 69.1613 78.1471C66.6092 78.1439 64.1625 77.1286 62.3578 75.3239C60.5532 73.5193 59.538 71.0727 59.5347 68.5205ZM102.083 41.9511C100.788 41.9511 99.5224 41.5672 98.4459 40.8479C97.3694 40.1286 96.5304 39.1062 96.035 37.9101C95.5395 36.7139 95.4098 35.3977 95.6624 34.1279C95.915 32.8581 96.5385 31.6917 97.454 30.7762C98.3694 29.8607 99.5359 29.2373 100.806 28.9847C102.076 28.7321 103.392 28.8617 104.588 29.3572C105.784 29.8526 106.806 30.6916 107.526 31.7681C108.245 32.8446 108.629 34.1103 108.629 35.405C108.627 37.1406 107.937 38.8047 106.71 40.032C105.482 41.2592 103.818 41.9495 102.083 41.9511Z" fill="white"/>
</g>
</g>
<path d="M195.938 65C195.938 62.6667 195.542 60.4062 194.75 58.2188C193.979 56.0104 192.927 53.9375 191.594 52C190.281 50.0417 188.75 48.2188 187 46.5312C185.271 44.8438 183.448 43.3438 181.531 42.0312C179.615 40.6979 177.656 39.5833 175.656 38.6875C173.677 37.7708 171.792 37.0938 170 36.6562V65H163.594V29.8125H167.062V29.875C169.354 30 171.792 30.5104 174.375 31.4062C176.979 32.2812 179.562 33.4792 182.125 35C184.708 36.5 187.188 38.2917 189.562 40.375C191.958 42.4375 194.083 44.7188 195.938 47.2188V29.8125H202.312V65H195.938ZM251.156 29.8125L233.188 65H225.875L207.781 29.8125H215.062L229.531 57.9062L243.938 29.8125H251.156ZM295.5 65H289.094V55.3438H264.438V48.8125H289.094V36.125H272.438C270.875 36.125 269.406 36.4271 268.031 37.0312C266.656 37.6146 265.458 38.4167 264.438 39.4375C263.417 40.4583 262.604 41.6562 262 43.0312C261.417 44.3854 261.125 45.8438 261.125 47.4062V65H254.656V47.4062C254.656 44.9479 255.125 42.6458 256.062 40.5C257 38.3542 258.271 36.4792 259.875 34.875C261.479 33.2708 263.365 32.0104 265.531 31.0938C267.698 30.1562 270 29.6875 272.438 29.6875H295.5V65ZM338.406 65H304.719V29.8125H311.125V58.5938H338.406V65ZM350.188 65H343.844V29.8125H350.188V65ZM401.156 47.2812C401.156 49.7604 400.76 52.0833 399.969 54.25C399.177 56.3958 398.062 58.2708 396.625 59.875C395.188 61.4583 393.448 62.7083 391.406 63.625C389.385 64.5417 387.146 65 384.688 65H368.969V58.5312H384.688C386.25 58.5312 387.646 58.2396 388.875 57.6562C390.104 57.0729 391.146 56.2812 392 55.2812C392.875 54.2604 393.542 53.0729 394 51.7188C394.458 50.3438 394.688 48.8646 394.688 47.2812C394.688 45.7188 394.458 44.2604 394 42.9062C393.542 41.5521 392.875 40.375 392 39.375C391.146 38.375 390.104 37.5833 388.875 37C387.646 36.4167 386.25 36.125 384.688 36.125H365.938V65H359.406V29.6875H384.688C387.146 29.6875 389.385 30.1458 391.406 31.0625C393.448 31.9792 395.188 33.2292 396.625 34.8125C398.062 36.3958 399.177 38.2604 399.969 40.4062C400.76 42.5312 401.156 44.8229 401.156 47.2812Z" fill="#21242C"/>
<path d="M172.852 107C172.852 106.125 172.703 105.277 172.406 104.457C172.117 103.629 171.723 102.852 171.223 102.125C170.73 101.391 170.156 100.707 169.5 100.074C168.852 99.4414 168.168 98.8789 167.449 98.3867C166.73 97.8867 165.996 97.4688 165.246 97.1328C164.504 96.7891 163.797 96.5352 163.125 96.3711V107H160.723V93.8047H162.023V93.8281C162.883 93.875 163.797 94.0664 164.766 94.4023C165.742 94.7305 166.711 95.1797 167.672 95.75C168.641 96.3125 169.57 96.9844 170.461 97.7656C171.359 98.5391 172.156 99.3945 172.852 100.332V93.8047H175.242V107H172.852ZM255.551 93.8047L248.812 107H246.07L239.285 93.8047H242.016L247.441 104.34L252.844 93.8047H255.551ZM272.18 107H269.777V103.379H260.531V100.93H269.777V96.1719H263.531C262.945 96.1719 262.395 96.2852 261.879 96.5117C261.363 96.7305 260.914 97.0312 260.531 97.4141C260.148 97.7969 259.844 98.2461 259.617 98.7617C259.398 99.2695 259.289 99.8164 259.289 100.402V107H256.863V100.402C256.863 99.4805 257.039 98.6172 257.391 97.8125C257.742 97.0078 258.219 96.3047 258.82 95.7031C259.422 95.1016 260.129 94.6289 260.941 94.2852C261.754 93.9336 262.617 93.7578 263.531 93.7578H272.18V107ZM288.27 107H275.637V93.8047H278.039V104.598H288.27V107ZM292.688 107H290.309V93.8047H292.688V107ZM311.801 100.355C311.801 101.285 311.652 102.156 311.355 102.969C311.059 103.773 310.641 104.477 310.102 105.078C309.562 105.672 308.91 106.141 308.145 106.484C307.387 106.828 306.547 107 305.625 107H299.73V104.574H305.625C306.211 104.574 306.734 104.465 307.195 104.246C307.656 104.027 308.047 103.73 308.367 103.355C308.695 102.973 308.945 102.527 309.117 102.02C309.289 101.504 309.375 100.949 309.375 100.355C309.375 99.7695 309.289 99.2227 309.117 98.7148C308.945 98.207 308.695 97.7656 308.367 97.3906C308.047 97.0156 307.656 96.7188 307.195 96.5C306.734 96.2812 306.211 96.1719 305.625 96.1719H298.594V107H296.145V93.7578H305.625C306.547 93.7578 307.387 93.9297 308.145 94.2734C308.91 94.6172 309.562 95.0859 310.102 95.6797C310.641 96.2734 311.059 96.9727 311.355 97.7773C311.652 98.5742 311.801 99.4336 311.801 100.355Z" fill="#58AC16"/>
<path d="M194.262 100.379C194.262 101.293 194.117 102.152 193.828 102.957C193.539 103.754 193.125 104.453 192.586 105.055C192.055 105.656 191.414 106.133 190.664 106.484C189.922 106.828 189.094 107 188.18 107H184.008C183.094 107 182.262 106.828 181.512 106.484C180.762 106.133 180.117 105.656 179.578 105.055C179.047 104.453 178.637 103.754 178.348 102.957C178.059 102.152 177.914 101.293 177.914 100.379C177.914 99.4727 178.059 98.6211 178.348 97.8242C178.637 97.0273 179.047 96.332 179.578 95.7383C180.117 95.1367 180.762 94.6641 181.512 94.3203C182.262 93.9766 183.094 93.8047 184.008 93.8047H188.18C189.094 93.8047 189.922 93.9766 190.664 94.3203C191.414 94.6641 192.055 95.1367 192.586 95.7383C193.125 96.332 193.539 97.0273 193.828 97.8242C194.117 98.6211 194.262 99.4727 194.262 100.379ZM191.859 100.379C191.859 99.8008 191.773 99.2578 191.602 98.75C191.438 98.2344 191.195 97.7891 190.875 97.4141C190.562 97.0312 190.18 96.7305 189.727 96.5117C189.273 96.2852 188.758 96.1719 188.18 96.1719H184.008C183.43 96.1719 182.91 96.2852 182.449 96.5117C181.996 96.7305 181.609 97.0312 181.289 97.4141C180.977 97.7891 180.734 98.2344 180.562 98.75C180.398 99.2578 180.316 99.8008 180.316 100.379C180.316 100.957 180.398 101.504 180.562 102.02C180.734 102.527 180.977 102.973 181.289 103.355C181.609 103.738 181.996 104.043 182.449 104.27C182.91 104.488 183.43 104.598 184.008 104.598H188.18C188.758 104.598 189.273 104.488 189.727 104.27C190.18 104.043 190.562 103.738 190.875 103.355C191.195 102.973 191.438 102.527 191.602 102.02C191.773 101.504 191.859 100.957 191.859 100.379ZM212.566 100.355C212.566 101.285 212.418 102.156 212.121 102.969C211.824 103.773 211.406 104.477 210.867 105.078C210.328 105.672 209.676 106.141 208.91 106.484C208.152 106.828 207.312 107 206.391 107H200.496V104.574H206.391C206.977 104.574 207.5 104.465 207.961 104.246C208.422 104.027 208.812 103.73 209.133 103.355C209.461 102.973 209.711 102.527 209.883 102.02C210.055 101.504 210.141 100.949 210.141 100.355C210.141 99.7695 210.055 99.2227 209.883 98.7148C209.711 98.207 209.461 97.7656 209.133 97.3906C208.812 97.0156 208.422 96.7188 207.961 96.5C207.5 96.2812 206.977 96.1719 206.391 96.1719H199.359V107H196.91V93.7578H206.391C207.312 93.7578 208.152 93.9297 208.91 94.2734C209.676 94.6172 210.328 95.0859 210.867 95.6797C211.406 96.2734 211.824 96.9727 212.121 97.7773C212.418 98.5742 212.566 99.4336 212.566 100.355ZM229.02 107H215.238V93.7578H229.02V96.1719H217.664V104.574H229.02V107ZM227.484 101.527H218.801V99.1016H227.484V101.527ZM329.578 107H327.176V103.379H317.93V100.93H327.176V96.1719H320.93C320.344 96.1719 319.793 96.2852 319.277 96.5117C318.762 96.7305 318.312 97.0312 317.93 97.4141C317.547 97.7969 317.242 98.2461 317.016 98.7617C316.797 99.2695 316.688 99.8164 316.688 100.402V107H314.262V100.402C314.262 99.4805 314.438 98.6172 314.789 97.8125C315.141 97.0078 315.617 96.3047 316.219 95.7031C316.82 95.1016 317.527 94.6289 318.34 94.2852C319.152 93.9336 320.016 93.7578 320.93 93.7578H329.578V107ZM340.336 107H337.934V96.1719H331.582V93.8047H346.676V96.1719H340.336V107ZM364.113 100.379C364.113 101.293 363.969 102.152 363.68 102.957C363.391 103.754 362.977 104.453 362.438 105.055C361.906 105.656 361.266 106.133 360.516 106.484C359.773 106.828 358.945 107 358.031 107H353.859C352.945 107 352.113 106.828 351.363 106.484C350.613 106.133 349.969 105.656 349.43 105.055C348.898 104.453 348.488 103.754 348.199 102.957C347.91 102.152 347.766 101.293 347.766 100.379C347.766 99.4727 347.91 98.6211 348.199 97.8242C348.488 97.0273 348.898 96.332 349.43 95.7383C349.969 95.1367 350.613 94.6641 351.363 94.3203C352.113 93.9766 352.945 93.8047 353.859 93.8047H358.031C358.945 93.8047 359.773 93.9766 360.516 94.3203C361.266 94.6641 361.906 95.1367 362.438 95.7383C362.977 96.332 363.391 97.0273 363.68 97.8242C363.969 98.6211 364.113 99.4727 364.113 100.379ZM361.711 100.379C361.711 99.8008 361.625 99.2578 361.453 98.75C361.289 98.2344 361.047 97.7891 360.727 97.4141C360.414 97.0312 360.031 96.7305 359.578 96.5117C359.125 96.2852 358.609 96.1719 358.031 96.1719H353.859C353.281 96.1719 352.762 96.2852 352.301 96.5117C351.848 96.7305 351.461 97.0312 351.141 97.4141C350.828 97.7891 350.586 98.2344 350.414 98.75C350.25 99.2578 350.168 99.8008 350.168 100.379C350.168 100.957 350.25 101.504 350.414 102.02C350.586 102.527 350.828 102.973 351.141 103.355C351.461 103.738 351.848 104.043 352.301 104.27C352.762 104.488 353.281 104.598 353.859 104.598H358.031C358.609 104.598 359.125 104.488 359.578 104.27C360.031 104.043 360.414 103.738 360.727 103.355C361.047 102.973 361.289 102.527 361.453 102.02C361.625 101.504 361.711 100.957 361.711 100.379ZM382.301 107H379.031L375.281 103.426H370.418V101.047H377.062C377.398 101.047 377.715 100.98 378.012 100.848C378.309 100.715 378.566 100.539 378.785 100.32C379.004 100.094 379.176 99.832 379.301 99.5352C379.426 99.2383 379.488 98.9258 379.488 98.5977C379.488 98.2617 379.426 97.9492 379.301 97.6602C379.176 97.3633 379.004 97.1055 378.785 96.8867C378.566 96.668 378.309 96.4961 378.012 96.3711C377.715 96.2383 377.398 96.1719 377.062 96.1719H369.164V107H366.762V93.8047H377.062C377.727 93.8047 378.352 93.9336 378.938 94.1914C379.523 94.4414 380.031 94.7852 380.461 95.2227C380.898 95.6523 381.242 96.1602 381.492 96.7461C381.742 97.3242 381.867 97.9414 381.867 98.5977C381.867 99.1367 381.781 99.6562 381.609 100.156C381.438 100.648 381.195 101.102 380.883 101.516C380.578 101.922 380.215 102.273 379.793 102.57C379.371 102.867 378.91 103.086 378.41 103.227L382.301 107Z" fill="#21242C"/>
<defs>
<clipPath id="clip0_1011_107">
<rect width="98.5765" height="98.5765" fill="white" transform="translate(17.2119 17.2119)"/>
</clipPath>
</defs>
</svg>
